<svg width="361" height="20" viewBox="0 0 361 20" fill="none" xmlns="http://www.w3.org/2000/svg">
<path d="M17.9907 10.9094C16.935 12.449 14.9116 13.1528 11.9645 13.1528C11.5686 13.1528 3.0351 13.1528 3.0351 13.1528V19.3549H0V0.308552H12.0524C15.1755 0.308552 16.979 1.05633 17.9027 2.5079C18.5625 3.51961 18.9584 4.79523 18.9584 6.77465C19.0024 8.57812 18.6505 9.94172 17.9907 10.9094ZM15.5274 4.53131C14.9116 3.51961 13.7679 3.03575 11.5686 3.03575H3.07909V10.3816C3.07909 10.3816 11.2607 10.3816 11.4806 10.3816C13.8559 10.3816 14.9996 9.80976 15.5274 8.93002C15.8353 8.44616 15.9233 7.69838 15.9233 6.73067C15.9233 5.76295 15.7914 4.97118 15.5274 4.53131Z" fill="black"/>
<path d="M21.1139 19.355H17.9468L27.9319 0.264614H31.4948L41.172 19.355H37.9169L35.4976 14.6484H23.6211L21.1139 19.355ZM30.4831 4.66332L29.6474 2.90384L28.8116 4.66332L24.9407 11.9652H34.266C34.222 11.9652 30.4831 4.66332 30.4831 4.66332Z" fill="black"/>
<path d="M64.661 19.355V4.70726L57.2712 19.355H54.1041L46.8902 4.66327V19.355H43.9871V0.308552H47.9899L55.6876 16.0119L63.5173 0.308552H67.4762V19.3989H64.661V19.355Z" fill="black"/>
<path d="M72.1388 19.355V0.308552H89.7776V3.07974H75.1299V8.35819H89.3817V11.1294H75.1299V16.5838H89.9536V19.3989H72.1388V19.355Z" fill="black"/>
<path d="M93.9124 19.355V0.308552H96.9475V16.5838H110.1V19.3989H93.9124V19.355Z" fill="black"/>
<path d="M115.598 19.355H112.431L122.372 0.308552H125.935L135.612 19.3989H132.357L129.938 14.6923H118.061L115.598 19.355ZM124.967 4.66327L124.132 2.90379L123.296 4.66327L119.425 11.9651H128.75C128.706 11.9651 124.967 4.66327 124.967 4.66327Z" fill="black"/>
<path d="M162.092 19.3549H148.324V0.308552H161.169C163.324 0.308552 164.82 0.880384 165.743 1.80411C166.579 2.59588 166.975 3.78353 166.975 5.05916C166.975 6.29079 166.579 7.47844 165.919 8.22622C165.523 8.75407 164.908 9.23792 164.116 9.3259C165.435 9.45786 166.667 10.0737 167.415 10.7775C168.163 11.5692 168.514 12.8009 168.514 14.0765C168.514 15.3961 168.163 16.6717 167.415 17.5075C166.491 18.6951 164.688 19.3549 162.092 19.3549ZM163.016 3.65157C162.444 3.12373 161.564 2.90379 160.465 2.90379H151.315V8.40217H161.037C161.872 8.40217 162.62 8.18224 163.104 7.65439C163.544 7.21452 163.852 6.46674 163.852 5.63099C163.808 4.88321 163.5 4.17942 163.016 3.65157ZM165.391 13.8126C165.391 13.0648 165.171 12.405 164.644 11.8771C164.072 11.3053 163.104 11.0414 161.696 11.0414H151.315V16.7157H161.608C163.148 16.7157 164.204 16.3638 164.776 15.704C165.215 15.2642 165.391 14.6043 165.391 13.8126Z" fill="black"/>
<path d="M172.385 19.355V0.308552H190.024V3.07974H175.377V8.35819H189.628V11.1294H175.377V16.5838H190.2V19.3989H172.385V19.355Z" fill="black"/>
<path d="M194.159 19.355V0.308552H197.194V16.5838H210.346V19.3989H194.159V19.355Z" fill="black"/>
<path d="M213.513 19.355V0.308552H216.548V16.5838H229.701V19.3989H213.513V19.355Z" fill="black"/>
<path d="M235.199 19.355H232.032L242.017 0.308552H245.58L255.257 19.3989H252.002L249.583 14.6923H237.706L235.199 19.355ZM244.568 4.66327L243.732 2.90379L242.896 4.66327L239.026 11.9651H248.351C248.307 11.9651 244.568 4.66327 244.568 4.66327Z" fill="black"/>
<path d="M260.711 3.07974V8.44616H274.04V11.3053H260.711V19.4429H257.676V0.308552H274.655V3.07974H260.711Z" fill="black"/>
<path d="M278.086 19.355V0.308552H295.681V3.07974H281.033V8.35819H295.285V11.1294H281.033V16.5838H295.857V19.3989H278.086V19.355Z" fill="black"/>
<path d="M309.141 19.6188C303.423 19.6188 300.432 18.2992 299.156 15.9679C298.716 15.2201 298.496 14.2524 298.408 13.3727H301.619C301.663 13.7685 301.795 14.3844 302.059 14.7802C302.939 16.1878 305.138 16.9356 309.185 16.9356C314.156 16.9356 315.739 15.704 315.739 14.0325C315.739 12.229 314.376 11.5692 310.021 10.9974C309.185 10.9094 307.426 10.6894 306.458 10.6015C300.828 9.94167 298.672 8.40212 298.672 5.411C298.672 2.37589 301.443 -0.0433966 308.13 0.000590434C313.76 0.000590434 316.443 1.62811 317.763 3.87145C318.115 4.48727 318.335 5.27904 318.423 5.85087H315.167C315.08 5.49897 314.948 5.0591 314.684 4.7072C313.716 3.38759 311.824 2.6838 308.13 2.6838C303.379 2.6838 301.795 3.56354 301.795 5.14707C301.795 6.7746 303.247 7.39042 307.954 7.96225C308.965 8.09421 310.813 8.27016 311.649 8.40212C316.707 8.97395 318.774 10.6015 318.774 13.6806C318.862 17.4195 316.003 19.6188 309.141 19.6188Z" fill="black"/>
<path d="M331.75 3.07974V19.3989H328.671V3.07974H320.05V0.308552H340.328V3.07974H331.75Z" fill="black"/>
<path d="M340.152 19.355H336.985L346.97 0.264614H350.533L360.21 19.355H356.955L354.536 14.6484H342.659L340.152 19.355ZM349.521 4.66332L348.685 2.90384L347.85 4.66332L343.979 11.9652H353.304C353.304 11.9652 349.521 4.66332 349.521 4.66332Z" fill="black"/>
</svg>
